/* XPM */
static char * evrmore32_xpm[] = {
"32 32 103 2",
"  	c None",
". 	c #000000",
"+ 	c #0C0C0C",
"@ 	c #454545",
"# 	c #4A4A4A",
"$ 	c #4D4D4D",
"% 	c #7D7D7D",
"& 	c #7F7F7F",
"* 	c #737373",
"= 	c #161616",
"- 	c #040404",
"; 	c #7E7E7E",
"> 	c #999999",
", 	c #ADADAD",
"' 	c #F6F6F6",
") 	c #FEFEFE",
"! 	c #CDCDCD",
"~ 	c #191919",
"{ 	c #8F8F8F",
"] 	c #969696",
"^ 	c #6F6F6F",
"/ 	c #717171",
"( 	c #AAAAAA",
"_ 	c #BBBBBB",
": 	c #BCBCBC",
"< 	c #C3C3C3",
"[ 	c #FAFAFA",
"} 	c #EEEEEE",
"| 	c #282828",
"1 	c #020202",
"2 	c #7A7A7A",
"3 	c #797979",
"4 	c #090909",
"5 	c #212121",
"6 	c #D3D3D3",
"7 	c #FFFFFF",
"8 	c #C2C2C2",
"9 	c #151515",
"0 	c #838383",
"a 	c #6E6E6E",
"b 	c #010101",
"c 	c #C1C1C1",
"d 	c #D8D8D8",
"e 	c #242424",
"f 	c #2B2B2B",
"g 	c #8B8B8B",
"h 	c #989898",
"i 	c #616161",
"j 	c #060606",
"k 	c #B0B0B0",
"l 	c #E5E5E5",
"m 	c #393939",
"n 	c #3B3B3B",
"o 	c #929292",
"p 	c #515151",
"q 	c #939393",
"r 	c #FBFBFB",
"s 	c #5A5A5A",
"t 	c #494949",
"u 	c #959595",
"v 	c #949494",
"w 	c #3A3A3A",
"x 	c #727272",
"y 	c #686868",
"z 	c #606060",
"A 	c #A9A9A9",
"B 	c #424242",
"C 	c #404040",
"D 	c #F2F2F2",
"E 	c #626262",
"F 	c #313131",
"G 	c #8E8E8E",
"H 	c #979797",
"I 	c #A4A4A4",
"J 	c #FDFDFD",
"K 	c #E9E9E9",
"L 	c #1F1F1F",
"M 	c #878787",
"N 	c #6B6B6B",
"O 	c #0D0D0D",
"P 	c #DEDEDE",
"Q 	c #2D2D2D",
"R 	c #101010",
"S 	c #747474",
"T 	c #0F0F0F",
"U 	c #CBCBCB",
"V 	c #1C1C1C",
"W 	c #808080",
"X 	c #171717",
"Y 	c #333333",
"Z 	c #B7B7B7",
"` 	c #595959",
" .	c #A5A5A5",
"..	c #828282",
"+.	c #D6D6D6",
"@.	c #181818",
"#.	c #5E5E5E",
"$.	c #636363",
"%.	c #646464",
"&.	c #898989",
"*.	c #A8A8A8",
"=.	c #9A9A9A",
"-.	c #252525",
"                                                                ",
"                                                                ",
"                                                                ",
"                                                                ",
"                            . . . .                             ",
"                      . . . . . . . . . .                       ",
"                  . . . . . . . . . . . . . .                   ",
"                . . . . . . . . . . . . . . . .                 ",
"              . . + @ # # # # $ % & & & & * = . .               ",
"            . . - ; > > > > > > , ' ) ) ) ) ! . . .             ",
"          . . . ~ { ] * ^ ^ ^ / ( _ : : < [ } | . . .           ",
"          . . . 1 2 > 3 4 . . . . . . 5 6 7 8 . . . .           ",
"        . . . . . 9 0 > a . . . . . b c 7 d e . . . . .         ",
"        . . . . . . f g h i 1 . . j k ) l m . . . . . .         ",
"        . . . . . . . n o ] p . . q r } s . . . . . . .         ",
"        . . . . . . . . t u v w ^ [ ' x . . . . . . . .         ",
"        . . . . . . . . b y > z , 7 A . . . . . . . . .         ",
"        . . . . . . . . B o ] C 2 r D E . . . . . . . .         ",
"        . . . . . . . F G H s . . I J K t . . . . . . .         ",
"        . . . . . . L M > N - . . O : 7 P Q . . . . . .         ",
"        . . . . . R & > S b . . . . T U 7 ! V . . . . .         ",
"          . . . . * > W X . . . . . . Y P 7 Z . . . .           ",
"          . . . ~ { u z ` ` ` ; H H H H  .[ } e . . .           ",
"            . . - ..> > > > _ r 7 7 7 7 7 7 +.. . .             ",
"              . . @.#.$.$.$.%.&.*.*.*.*.*.=.-.. .               ",
"                . . . . . . . . . . . . . . . . .               ",
"                  . . . . . . . . . . . . . .                   ",
"                    . . . . . . . . . . . .                     ",
"                          . . . . . .                           ",
"                                                                ",
"                                                                ",
"                                                                "};
