/* XPM */
static char * evrmore4_xpm[] = {
"64 64 111 2",
"  	c None",
". 	c #000000",
"+ 	c #424242",
"@ 	c #828282",
"# 	c #888888",
"$ 	c #898989",
"% 	c #ADADAD",
"& 	c #D6D6D6",
"* 	c #E3E3E3",
"= 	c #E4E4E4",
"- 	c #BCBCBC",
"; 	c #121212",
"> 	c #989898",
", 	c #999999",
"' 	c #BBBBBB",
") 	c #FDFDFD",
"! 	c #FFFFFF",
"~ 	c #A3A3A3",
"{ 	c #2F2F2F",
"] 	c #9A9A9A",
"^ 	c #797979",
"/ 	c #7A7A7A",
"( 	c #CCCCCC",
"_ 	c #CACACA",
": 	c #F9F9F9",
"< 	c #C5C5C5",
"[ 	c #141414",
"} 	c #959595",
"| 	c #919191",
"1 	c #222222",
"2 	c #C6C6C6",
"3 	c #4F4F4F",
"4 	c #8E8E8E",
"5 	c #040404",
"6 	c #9E9E9E",
"7 	c #D4D4D4",
"8 	c #595959",
"9 	c #868686",
"0 	c #7C7C7C",
"a 	c #E6E6E6",
"b 	c #6C6C6C",
"c 	c #010101",
"d 	c #656565",
"e 	c #FAFAFA",
"f 	c #F4F4F4",
"g 	c #292929",
"h 	c #7E7E7E",
"i 	c #616161",
"j 	c #434343",
"k 	c #F3F3F3",
"l 	c #5D5D5D",
"m 	c #0A0A0A",
"n 	c #8B8B8B",
"o 	c #484848",
"p 	c #242424",
"q 	c #EFEFEF",
"r 	c #787878",
"s 	c #1A1A1A",
"t 	c #939393",
"u 	c #969696",
"v 	c #2A2A2A",
"w 	c #0B0B0B",
"x 	c #E1E1E1",
"y 	c #8D8D8D",
"z 	c #606060",
"A 	c #363636",
"B 	c #F8F8F8",
"C 	c #B1B1B1",
"D 	c #4D4D4D",
"E 	c #2C2C2C",
"F 	c #F6F6F6",
"G 	c #EBEBEB",
"H 	c #212121",
"I 	c #4C4C4C",
"J 	c #8F8F8F",
"K 	c #111111",
"L 	c #8C8C8C",
"M 	c #D5D5D5",
"N 	c #0D0D0D",
"O 	c #3F3F3F",
"P 	c #929292",
"Q 	c #1F1F1F",
"R 	c #080808",
"S 	c #BEBEBE",
"T 	c #B9B9B9",
"U 	c #353535",
"V 	c #DFDFDF",
"W 	c #909090",
"X 	c #474747",
"Y 	c #101010",
"Z 	c #8A8A8A",
"` 	c #838383",
" .	c #565656",
"..	c #272727",
"+.	c #F1F1F1",
"@.	c #757575",
"#.	c #707070",
"$.	c #6E6E6E",
"%.	c #F7F7F7",
"&.	c #4B4B4B",
"*.	c #262626",
"=.	c #7D7D7D",
"-.	c #D2D2D2",
";.	c #EAEAEA",
">.	c #FBFBFB",
",.	c #C0C0C0",
"'.	c #848484",
").	c #DCDCDC",
"!.	c #767676",
"~.	c #6D6D6D",
"{.	c #BABABA",
"                                                                                                                                ",
"                                                                                                                                ",
"                                                                                                                                ",
"                                                                                                                                ",
"                                                                                                                                ",
"                                                                                                                                ",
"                                                                                                                                ",
"                                                                                                                                ",
"                                                                                                                                ",
"                                                                                                                                ",
"                                                                                                                                ",
"                                                                                                                                ",
"                                                                                                                                ",
"                                                                                                                                ",
"                                                                                                                                ",
"                                                          . . . . . . .                                                         ",
"                                                    . . . . . . . . . . . . .                                                   ",
"                                                . . . . . . . . . . . . . . . . .                                               ",
"                                            . . . . . . . . . . . . . . . . . . . .                                             ",
"                                          . . . . . . . . . . . . . . . . . . . . . .                                           ",
"                                        . . . . . . . . . . . . . . . . . . . . . . . .                                         ",
"                                      . . . . + @ # # # # # # $ % & * * * * * = - . . . .                                       ",
"                                    . . . . ; > , , , , , , , , > ' ) ! ! ! ! ! ! ~ . . . .                                     ",
"                                    . . . . { ] , # ^ ^ ^ ^ ^ / % ( ( ( ( ( _ : ! < . . . . .                                   ",
"                                  . . . . . [ } , | 1 . . . . . . . . . . . 2 ! ! ~ . . . . .                                   ",
"                                  . . . . . . 3 > , 4 5 . . . . . . . . . 6 ! ! 7 . . . . . . .                                 ",
"                                . . . . . . . . 8 , , 9 . . . . . . . . 0 ! ! a . . . . . . . .                                 ",
"                                . . . . . . . . . b , , ^ c . . . . . d e ! f g . . . . . . . .                                 ",
"                                . . . . . . . . . . h , , i c . . . j k ! e l . . . . . . . . . .                               ",
"                                . . . . . . . . . . m n , , o . . p q ! ) r . . . . . . . . . . .                               ",
"                                . . . . . . . . . . . s t , u v w x ! ! y . . . . . . . . . . . .                               ",
"                                . . . . . . . . . . . . { > , z A B ! C . . . . . . . . . . . . .                               ",
"                                . . . . . . . . . . . . 8 , , D E F ! G H . . . . . . . . . . . .                               ",
"                                . . . . . . . . . . . I > , J K c L ! ! M N . . . . . . . . . . .                               ",
"                                . . . . . . . . . . O u , P Q . . R S ! ! T . . . . . . . . . . .                               ",
"                                . . . . . . . . . p t , } U . . . . m V ! ! 6 . . . . . . . . .                                 ",
"                                . . . . . . . . c W , > X . . . . . . Y G ! ! Z . . . . . . . .                                 ",
"                                  . . . . . . . ` , ,  .. . . . . . . . ..+.! : @.. . . . . . .                                 ",
"                                  . . . . . . #., , $.. . . . . . . . . .  .%.! k &.. . . . .                                   ",
"                                  . . . . . *.] , =.. . . . . . . . . . . . h ) ! ' . . . . .                                   ",
"                                    . . . . v ] , W L L L L y -.;.;.;.;.;.;.;.>.! ,.. . . .                                     ",
"                                      . . . . '., , , , , ] ).! ! ! ! ! ! ! ! ! ! !.. . . .                                     ",
"                                      . . . . 5 i $.$.$.$.$.~.n T {.{.{.{.{.{.' 3 . . . .                                       ",
"                                        . . . . . . . . . . . . . . . . . . . . . . . .                                         ",
"                                          . . . . . . . . . . . . . . . . . . . . . .                                           ",
"                                              . . . . . . . . . . . . . . . . . . .                                             ",
"                                                . . . . . . . . . . . . . . . .                                                 ",
"                                                      . . . . . . . . . . .                                                     ",
"                                                                                                                                ",
"                                                                                                                                ",
"                                                                                                                                ",
"                                                                                                                                ",
"                                                                                                                                ",
"                                                                                                                                ",
"                                                                                                                                ",
"                                                                                                                                ",
"                                                                                                                                ",
"                                                                                                                                ",
"                                                                                                                                ",
"                                                                                                                                ",
"                                                                                                                                ",
"                                                                                                                                ",
"                                                                                                                                ",
"                                                                                                                                "};
