/* XPM */
static char * evrmore16_xpm[] = {
"16 16 65 1",
" 	c None",
".	c #000000",
"+	c #222222",
"@	c #252525",
"#	c #282828",
"$	c #454545",
"%	c #444444",
"&	c #3E3E3E",
"*	c #010101",
"=	c #616161",
"-	c #939393",
";	c #909090",
">	c #919191",
",	c #CDCDCD",
"'	c #EFEFEF",
")	c #F5F5F5",
"!	c #A1A1A1",
"~	c #535353",
"{	c #888888",
"]	c #2D2D2D",
"^	c #090909",
"/	c #141414",
"(	c #555555",
"_	c #E5E5E5",
":	c #878787",
"<	c #040404",
"[	c #656565",
"}	c #808080",
"|	c #1C1C1C",
"1	c #383838",
"2	c #D9D9D9",
"3	c #A7A7A7",
"4	c #0E0E0E",
"5	c #757575",
"6	c #737373",
"7	c #C2C2C2",
"8	c #C0C0C0",
"9	c #0C0C0C",
"0	c #717171",
"a	c #C5C5C5",
"b	c #BBBBBB",
"c	c #171717",
"d	c #030303",
"e	c #838383",
"f	c #1F1F1F",
"g	c #DDDDDD",
"h	c #070707",
"i	c #4E4E4E",
"j	c #898989",
"k	c #303030",
"l	c #080808",
"m	c #0F0F0F",
"n	c #5A5A5A",
"o	c #E8E8E8",
"p	c #636363",
"q	c #929292",
"r	c #8D8D8D",
"s	c #C8C8C8",
"t	c #EAEAEA",
"u	c #F3F3F3",
"v	c #A5A5A5",
"w	c #343434",
"x	c #373737",
"y	c #434343",
"z	c #606060",
"                ",
"                ",
"     ......     ",
"    .+@#$%&.    ",
"   *=-;>,')!*   ",
"  ..~{]^/(_:..  ",
"  ..<[}|123^..  ",
"  ...45678|...  ",
"  ...905abc...  ",
"  ..d=ef&g!h..  ",
"  ..ijklmno}..  ",
"   *pqrsttuv*   ",
"   .<wxyz=nl.   ",
"     ......     ",
"                ",
"                "};
